<svg width="170" height="40" viewBox="0 0 170 40" fill="none" xmlns="http://www.w3.org/2000/svg">
<path d="M140.583 8.56213V31.5829C139.597 31.8709 138.593 32.0948 137.578 32.253C136.316 32.4268 135.043 32.5051 133.769 32.4879C132.661 32.4916 131.558 32.334 130.496 32.0201C129.491 31.7252 128.558 31.2234 127.759 30.5468C126.971 29.8606 126.347 29.006 125.934 28.0461L125.889 27.9393C125.431 26.8761 125.2 25.5571 125.2 24.0204C125.193 22.8434 125.393 21.6744 125.793 20.5673C126.165 19.5268 126.742 18.5719 127.491 17.7597C128.251 16.9575 129.167 16.3196 130.184 15.8857C131.247 15.4331 132.391 15.1985 133.547 15.1957L133.681 15.1963C134.066 15.1963 134.476 15.2119 134.89 15.2445C135.295 15.276 135.696 15.3453 136.088 15.4525L136.238 15.4949V8.56213H140.583ZM110.022 15.7723C110.986 16.1867 111.842 16.815 112.526 17.6095C113.209 18.4191 113.713 19.3632 114.007 20.3805C114.321 21.4454 114.484 22.549 114.492 23.6591V23.8257C114.501 24.9804 114.338 26.13 114.007 27.2363C113.711 28.2414 113.21 29.1743 112.536 29.9766C111.855 30.7667 111.002 31.39 110.042 31.7985C108.918 32.259 107.711 32.4826 106.497 32.4553C105.292 32.4808 104.096 32.2572 102.982 31.7985C102.034 31.3885 101.194 30.7649 100.527 29.9766C99.8602 29.1689 99.3596 28.2377 99.0536 27.2363C98.7291 26.1822 98.5609 25.0862 98.5544 23.9833L98.5547 23.8257C98.5468 22.6594 98.715 21.4986 99.0536 20.3825C99.3543 19.3689 99.8552 18.4258 100.527 17.6091C101.198 16.817 102.041 16.1887 102.991 15.7723C104.099 15.3021 105.294 15.0724 106.497 15.0982C107.706 15.0724 108.908 15.3021 110.023 15.7723H110.022ZM85.6465 8.52929V31.5404C84.6606 31.8307 83.6561 32.0546 82.6406 32.2105C81.4659 32.3754 80.2812 32.4577 79.0952 32.4567L78.8408 32.455C77.7325 32.4595 76.6295 32.3012 75.5671 31.9853C74.5611 31.6926 73.628 31.1913 72.8286 30.514C72.0417 29.8273 71.4187 28.9729 71.0057 28.0136L70.9605 27.9065C70.5004 26.8339 70.2692 25.5146 70.2692 23.9876C70.2662 22.8097 70.4696 21.6404 70.8703 20.5328C71.2448 19.4941 71.8222 18.5403 72.5688 17.7269C73.3229 16.9259 74.2333 16.2882 75.2437 15.8532C76.3075 15.4003 77.4514 15.1656 78.6076 15.1632L78.7409 15.1635C79.0992 15.1635 79.4957 15.1791 79.9501 15.2119C80.3549 15.2438 80.7563 15.3135 81.1477 15.4196L81.2984 15.4621V8.52929H85.6465ZM150.655 15.0982C151.714 15.0783 152.764 15.2858 153.736 15.7066C154.607 16.0928 155.386 16.6593 156.022 17.3686C156.665 18.0958 157.15 18.9483 157.447 19.8723C157.768 20.8879 157.926 21.9481 157.915 23.0132C157.915 23.4213 157.898 23.8277 157.865 24.2224L157.841 24.4925C157.818 24.738 157.797 24.9158 157.771 25.0717H146.938V25.1988C147.028 26.5334 147.506 27.5097 148.355 28.1165C149.204 28.7229 150.309 29.0155 151.677 29.0155C152.447 29.0471 153.218 28.9746 153.969 28.7999L156.044 28.2226L156.9 31.5135C155.171 32.1377 153.346 32.4567 151.508 32.4563L151.33 32.455C149.79 32.455 148.455 32.2377 147.357 31.8121C146.35 31.4523 145.442 30.8587 144.708 30.08C143.974 29.3013 143.436 28.3597 143.136 27.3325C142.466 25.0858 142.471 22.6916 143.151 20.4479C143.469 19.4261 143.986 18.4776 144.673 17.6576C145.361 16.859 146.215 16.2202 147.176 15.7859C148.272 15.3082 149.459 15.0736 150.654 15.0982H150.655ZM43.7983 14.6705H43.9705C46.6298 14.6705 48.8886 15.3446 50.0152 16.4693C51.0456 17.5016 51.5041 19.1481 51.5041 21.8093V31.477L51.2659 31.5484C50.5759 31.7501 49.7604 31.9455 48.8368 32.1316C47.7073 32.3433 46.5608 32.4518 45.4116 32.4557L45.1817 32.4553C44.1722 32.462 43.1647 32.3631 42.1754 32.1604C41.3414 31.9989 40.5483 31.6715 39.8433 31.1977C39.208 30.7655 38.6952 30.1764 38.3547 29.4876C37.9822 28.6796 37.8023 27.7962 37.8289 26.9069C37.7984 26.0112 38.0246 25.1255 38.4798 24.3535C38.9009 23.6763 39.4772 23.1092 40.1611 22.6991C40.8814 22.2748 41.6668 21.9723 42.4856 21.8037C43.3318 21.6218 44.1948 21.5295 45.0603 21.5284C45.7521 21.5314 46.4434 21.5642 47.1323 21.6265H47.2617V21.1256C47.2617 19.3714 45.8883 18.4046 43.3946 18.4046C41.9721 18.408 40.5641 18.6926 39.2521 19.2423V15.4604C40.713 14.946 42.2495 14.679 43.7983 14.6705ZM15.1366 8.52929H15.2922C16.4188 8.52464 17.5434 8.62217 18.6528 8.82023C19.6164 8.98322 20.544 9.31437 21.393 9.79854C22.1507 10.2385 22.7806 10.8684 23.2206 11.6261C23.6634 12.3828 23.8887 13.3459 23.8887 14.4917C23.8941 15.1363 23.792 15.7773 23.5865 16.3883C23.4018 16.938 23.1286 17.4539 22.7777 17.9157C22.4518 18.3337 22.0618 18.6976 21.6222 18.9938C21.2394 19.262 20.8008 19.4398 20.3394 19.514V19.7489C20.8983 19.8321 21.4454 19.9821 21.9689 20.1957C22.5775 20.4411 23.1381 20.7918 23.6249 21.2318C24.1632 21.7287 24.5955 22.3294 24.8959 22.9976C25.2447 23.7842 25.4243 24.6353 25.423 25.4957L25.4217 25.6128C25.4217 26.9938 25.1596 28.1394 24.6514 29.0158C24.1394 29.8846 23.4091 30.6042 22.5328 31.1032C21.5778 31.6387 20.534 31.9975 19.4516 32.1624C18.2267 32.3611 16.9876 32.459 15.7467 32.4553C14.7836 32.4553 13.7821 32.4262 12.7942 32.3724C11.8643 32.3223 10.8146 32.2241 9.58984 32.0758V8.87231C10.2918 8.76656 10.9976 8.68832 11.7057 8.63777L12.0985 8.61156C12.9318 8.55947 13.9516 8.53161 15.1366 8.52929ZM120.89 8.52929V25.4857C120.881 26.0364 120.919 26.5865 121.003 27.1305C121.059 27.4898 121.19 27.8332 121.388 28.1377C121.558 28.3803 121.802 28.5613 122.084 28.6536C122.411 28.7522 122.753 28.7984 123.095 28.7906C123.271 28.7939 123.446 28.7856 123.621 28.7654C124.069 29.6704 124.801 30.5545 126.032 31.6734L124.659 31.9441C124.026 32.0675 123.444 32.177 123.309 32.1919L123.297 32.1933C122.85 32.2345 122.4 32.2563 121.951 32.2586C120.322 32.2586 118.997 31.8041 118.014 30.9107C117.033 30.017 116.542 28.5305 116.542 26.4929V8.52929H120.89ZM168.491 15.2969H168.732C168.895 15.2945 169.058 15.3055 169.219 15.3297L169.733 15.4107L169.643 19.235C169.417 19.2038 169.189 19.1886 168.961 19.1909H168.429C168.008 19.1945 167.587 19.2331 167.172 19.3063C166.677 19.3968 166.213 19.6114 165.824 19.93C165.347 20.3358 164.981 20.8561 164.761 21.4421C164.484 22.1102 164.343 23.0444 164.343 24.2188V32.0994L159.962 32.0954V15.4893L164.337 15.5218V17.7269L164.553 17.4207C164.984 16.8103 165.231 16.6235 165.822 16.1707L165.96 16.0668C166.694 15.535 167.585 15.2639 168.491 15.2965V15.2969ZM35.994 15.2912H36.2369C36.3998 15.2889 36.5626 15.2999 36.7239 15.3237L37.2401 15.4047L37.1475 19.2294C36.9217 19.1978 36.6938 19.183 36.4658 19.1849H35.9307C35.5094 19.1886 35.0897 19.2274 34.675 19.3007C34.1798 19.3903 33.7157 19.605 33.3268 19.9244C32.8502 20.3297 32.485 20.8501 32.2659 21.4361C31.9886 22.1026 31.8479 23.0385 31.8479 24.2132V32.0931L27.4629 32.0951V15.4893L31.8615 15.5218L31.8439 17.7173L32.0635 17.4091C32.4311 16.8906 32.6617 16.6799 33.0826 16.3548L33.4675 16.0612C34.2001 15.5297 35.0895 15.2585 35.994 15.2909V15.2912ZM97.9406 8.2274L99.2729 8.51038L98.6337 11.923L98.006 11.7976C97.6546 11.7354 97.2979 11.7076 96.9411 11.7147C96.2552 11.6865 95.5789 11.8834 95.0153 12.2753C94.4739 12.6817 94.187 13.5078 94.187 14.6632V15.4972H99.666C99.1639 15.8448 98.7104 16.2579 98.3178 16.7257C97.809 17.3426 97.3961 18.0328 97.093 18.7729H94.187V32.0699L89.8408 32.0622V18.7649H87.1735V15.4909H89.8408V14.5571C89.8258 13.6235 89.9832 12.6951 90.3049 11.8185C90.589 11.0618 91.0406 10.379 91.6259 9.82143C92.2175 9.26885 92.9171 8.84472 93.6807 8.57573C94.4853 8.29803 95.3296 8.15294 96.1807 8.14612H96.6963C97.1126 8.13219 97.5293 8.15939 97.9403 8.22707L97.9406 8.2274ZM62.9622 15.0978C64.8246 15.0978 66.2458 15.61 67.1836 16.6212C68.1215 17.632 68.6008 19.2596 68.6008 21.4491V32.0619H64.2205V22.6881C64.2205 21.5038 64.0281 20.5696 63.6678 19.9283C63.3075 19.2871 62.6222 18.9252 61.6939 18.9252C61.2992 18.9285 60.9067 18.9849 60.5269 19.0927C60.1051 19.214 59.7222 19.4429 59.4155 19.7568C59.052 20.1456 58.7815 20.6118 58.6243 21.1203C58.4024 21.8487 58.3009 22.6084 58.3237 23.3695V32.0626H53.9447V15.4893H58.3141V17.6672L58.5317 17.3417C58.5862 17.2482 58.6515 17.1613 58.7265 17.083L58.8373 16.9722C58.8751 16.9337 58.9225 16.8843 58.9862 16.8163C59.2944 16.4893 59.6409 16.2008 60.0183 15.957C60.4315 15.6943 60.8768 15.4858 61.3433 15.3367C61.8672 15.1725 62.4138 15.092 62.9628 15.0982L62.9622 15.0978ZM106.496 18.47C105.266 18.47 104.361 18.9437 103.8 19.8776C103.24 20.8118 102.987 22.1192 102.987 23.8253C102.987 25.5318 103.261 26.8585 103.8 27.7714C104.339 28.6841 105.258 29.179 106.496 29.179C107.734 29.179 108.665 28.7053 109.216 27.7714C109.766 26.8373 110.03 25.5279 110.03 23.8253C110.03 22.1232 109.77 20.7982 109.223 19.8776C108.676 18.957 107.758 18.47 106.496 18.47ZM45.4746 24.1936C44.3925 24.1936 43.524 24.386 42.8923 24.7715C42.2607 25.1563 41.908 25.8264 41.908 26.7125C41.908 27.3017 42.0374 27.7641 42.2932 28.0856C42.5297 28.3952 42.8431 28.6375 43.2022 28.7886C43.5225 28.9227 43.8607 29.0097 44.206 29.0467L44.3095 29.0563C44.6947 29.0908 45.0278 29.1061 45.3111 29.1061C45.6445 29.1056 45.9774 29.078 46.3063 29.0234L46.6175 28.971C46.8149 28.9369 46.9933 28.9053 47.1539 28.8771L47.2521 28.8579V24.3747L47.1519 24.3591C46.8696 24.3118 46.5858 24.2733 46.301 24.2437C46.0267 24.2128 45.751 24.1962 45.475 24.1939L45.4746 24.1936ZM132.11 18.9553C131.575 19.2516 131.114 19.6643 130.761 20.1629C130.391 20.6964 130.126 21.295 129.978 21.9271C129.823 22.5632 129.74 23.2146 129.73 23.8691L129.729 24.0204C129.712 24.7999 129.824 25.5769 130.062 26.3194C130.249 26.893 130.565 27.4157 130.987 27.8468C131.381 28.2273 131.859 28.5097 132.383 28.6711C132.945 28.8397 133.529 28.9226 134.116 28.9176C134.48 28.9176 134.823 28.902 135.134 28.8712C135.437 28.834 135.736 28.7743 136.028 28.692L136.24 28.6307V18.7898L136.15 18.7686C135.798 18.675 135.44 18.6027 135.079 18.5529C134.732 18.5164 134.384 18.4998 134.035 18.5032C133.365 18.4887 132.703 18.6444 132.109 18.9557L132.11 18.9553ZM77.1728 18.9248C76.634 19.2175 76.1696 19.63 75.8153 20.1304C75.445 20.6633 75.1796 21.262 75.0334 21.8943C74.8679 22.5797 74.7852 23.2825 74.7869 23.9876C74.7696 24.7664 74.8815 25.5427 75.118 26.2849C75.3026 26.8599 75.6192 27.3836 76.0425 27.8142C76.4355 28.1963 76.9141 28.4788 77.4385 28.6383C78.0005 28.8075 78.585 28.8914 79.1719 28.8868C79.5378 28.8868 79.8805 28.8695 80.1926 28.8387C80.4981 28.8033 80.8003 28.7436 81.0963 28.6602L81.3076 28.5978V18.759L81.2191 18.7357C80.8663 18.6415 80.508 18.5695 80.1462 18.5201C79.7983 18.4829 79.4484 18.4663 79.0986 18.4703C78.4284 18.4552 77.7655 18.6117 77.1728 18.9248ZM16.3057 21.7247H14.0598V28.7096L14.1616 28.7249C14.4698 28.7673 14.8297 28.8002 15.2285 28.8231C15.6273 28.8463 15.9776 28.8539 16.3262 28.8539C16.8125 28.8518 17.2976 28.8079 17.7763 28.7229C18.2818 28.6347 18.7679 28.4588 19.2127 28.203C19.6675 27.9409 20.0506 27.5705 20.3281 27.1249C20.6429 26.5779 20.7957 25.9527 20.7686 25.3222C20.7885 24.7267 20.6738 24.1342 20.4336 23.5888C20.2173 23.1367 19.885 22.75 19.4705 22.4682C19.0226 22.1786 18.521 21.9821 17.9956 21.8903C17.4383 21.7844 16.8726 21.7289 16.3053 21.7244L16.3057 21.7247ZM150.583 18.3721C149.469 18.3721 148.608 18.6916 148.026 19.3213C147.445 19.9512 147.096 20.8314 146.984 21.9596L146.973 22.0907H153.796V21.9676C153.752 20.9063 153.453 20.0418 152.906 19.3753C152.359 18.7089 151.571 18.3721 150.584 18.3721H150.583ZM14.1736 11.9031L14.0734 11.9187V18.3821H15.6196C16.1368 18.3859 16.6531 18.3368 17.1602 18.2355C17.6148 18.1461 18.0454 17.9618 18.4239 17.6947C18.795 17.4228 19.0889 17.059 19.2768 16.6391C19.4957 16.114 19.5996 15.5477 19.581 14.9791C19.6009 14.4231 19.4775 13.8713 19.2227 13.3767C19.0004 12.9764 18.6821 12.6376 18.2965 12.3908C17.9166 12.1529 17.4931 11.9932 17.0508 11.921C16.6093 11.8444 16.162 11.8058 15.7138 11.8056C15.1987 11.7994 14.6838 11.8322 14.1736 11.9038V11.9031Z" fill="#DEFF16"/>
<path d="M27.7773 6.32039V8.32512H25.3917L29.9711 12.9045L34.5469 8.32512H32.157V0H0V39.8906H32.1566V35.5112H4.37902V4.37936H27.7769L27.7773 6.32039Z" fill="#DEFF16"/>
</svg>
