<svg width="169" height="32" viewBox="0 0 169 32" fill="none" xmlns="http://www.w3.org/2000/svg">
<path fill-rule="evenodd" clip-rule="evenodd" d="M1.07043 0H25.217C29.7905 0 34.1888 3.09205 34.1888 7.951C34.1888 11.1605 32.1762 14.37 29.0155 15.2245L29.0354 15.3916C30.3804 15.8921 31.6559 16.491 32.5592 17.6698C33.5014 18.9064 33.953 20.4764 33.953 22.0166C33.953 24.5395 32.8347 26.6903 30.8899 28.2883C28.8294 29.9676 26.1791 30.9685 23.5188 30.9685H6.53822L9.52188 7.28345H0L1.07043 0ZM36.7118 10.9247H46.3411L45.408 14.6148H45.7124C46.7431 12.2589 48.6076 10.4234 51.3067 10.4234H51.3952L50.1296 19.9543C49.6482 19.8062 49.1179 19.6399 48.6076 19.6399C46.0656 19.6399 44.8678 22.3887 44.6221 24.5377L43.866 30.9667H34.1599L36.7118 10.9247ZM66.3948 10.9247H76.2401L73.6484 30.9676H64.0678L65.1482 27.5223L64.9323 27.5033C63.3813 29.7616 61.7129 31.5186 58.7681 31.5186C53.7321 31.5186 50.4639 27.0038 50.4639 22.2334C50.4639 16.6861 54.4096 10.3168 60.4762 10.3168C63.6659 10.3168 65.0994 11.8777 66.3948 14.6157L66.552 14.557L66.3948 10.9247ZM78.6058 10.9247H88.275L87.3807 14.6148H87.6065C89.1873 12.2689 90.9253 10.3358 93.9686 10.3358C97.412 10.3358 100.456 13.202 100.456 16.6861C100.456 16.9119 100.447 17.1486 100.417 17.3825L98.7092 30.9676H88.8829L90.1692 20.5631C90.1972 20.3265 90.227 20.0925 90.227 19.8558C90.227 19.1503 89.7067 18.5117 88.9796 18.5117C87.91 18.5117 87.2714 19.6219 87.1449 20.5631L85.7899 30.9676H76.1226L78.6058 10.9247ZM140.181 24.2938H149.427C148.014 29.3587 142.869 31.7832 137.902 31.7832C134.635 31.7832 131.12 30.7724 128.823 28.329C127.085 26.4726 126.231 23.9695 126.231 21.4375C126.231 14.5669 132.082 10.1199 138.63 10.1199C144.814 10.1199 149.917 14.4386 149.917 20.7709C149.917 21.3987 149.868 22.0166 149.821 22.6444H135.999V23.115C135.999 24.4122 136.519 26.0119 138.07 26.0119C139.13 26.0119 139.816 25.1972 140.181 24.2938ZM117.907 0H127.596L123.69 30.9685H114.159L115.101 27.5033H114.866C113.853 29.889 111.41 31.5086 108.818 31.5086C103.802 31.5086 101.182 26.6696 101.182 22.1647C101.182 19.0916 102.182 16.0194 104.116 13.6148C105.639 11.7305 107.984 10.287 110.468 10.287C111.782 10.287 113.068 10.6989 114.159 11.4261C115.238 12.1424 115.817 13.4676 116.299 14.6157H116.456V11.1605L117.907 0ZM169 12.1514L168.243 18.817C166.486 17.7068 164.13 16.4792 161.981 16.4792C161.362 16.4792 160.332 16.7159 160.332 17.5199C160.332 18.0989 161.039 18.4123 161.519 18.5117L164.512 19.1314C167.054 19.6499 168.762 21.928 168.762 24.4899C168.762 29.5656 163.52 31.7254 159.163 31.7254C156.012 31.7254 153.028 30.7625 150.211 29.4283L151.222 22.2921C152.921 24.049 155.737 25.6 158.221 25.6C158.8 25.6 159.772 25.217 159.733 24.4899C159.692 23.9027 158.976 23.6164 158.496 23.498L155.197 22.6543C152.921 22.0753 151.478 20.2885 151.478 17.9417C151.478 13.3583 155.935 10.296 160.194 10.296C163.227 10.296 166.163 11.1497 169 12.1514Z" fill="#DEFF16"/>
<path fill-rule="evenodd" clip-rule="evenodd" d="M21.9973 7.83301L21.5258 11.6414H23.1256C24.4019 11.6414 25.7958 10.9549 25.7958 9.48246C25.7958 8.27473 24.4019 7.83301 23.4011 7.83301H21.9973ZM20.6026 18.8174L19.9648 23.4893H22.2719C23.7443 23.4893 25.2267 22.4099 25.2267 20.839C25.2267 19.3079 23.7741 18.8174 22.4788 18.8174H20.6026ZM67.5029 20.7216C67.5029 19.4849 66.5706 18.1877 65.2446 18.1877C63.6746 18.1877 62.5843 19.7189 62.5843 21.1813C62.5843 22.5065 63.4289 23.8335 64.8814 23.8335C66.4333 23.8335 67.5029 22.1542 67.5029 20.7216ZM138.432 18.4931H142.917C142.799 17.2673 142.143 15.9999 140.719 15.9999C139.315 15.9999 138.639 17.2862 138.432 18.4931ZM117.672 20.633C117.672 19.3855 116.73 18.1101 115.395 18.1101C113.825 18.1101 112.745 19.6611 112.745 21.1037C112.745 22.4397 113.598 23.754 115.051 23.754C116.612 23.754 117.672 22.0765 117.672 20.633Z" fill="#12100E"/>
</svg>
