<svg width="60" height="60" viewBox="0 0 60 60" fill="none" xmlns="http://www.w3.org/2000/svg">
<circle cx="30" cy="30" r="30" fill="#DEFF16"/>
<path d="M46.1358 5.23126C38.137 -0.250068 27.5867 -1.57229 18.4737 1.97028C17.8693 2.1947 17.4592 2.70118 17.3353 3.27575C-19.0003 18.8479 7.62402 75.7473 43.6223 55.8152C43.8525 55.6757 44.9887 55.0072 45.2462 54.8414C46.3517 54.1185 45.4141 52.5404 44.2295 53.0852C35.8565 57.0046 25.6498 58.061 17.3952 53.334C-2.20509 43.1291 -2.78865 13.776 18.0981 5.11665C18.6001 5.4497 19.2599 5.53407 19.8584 5.28142C43.1655 -5.38558 69.2516 24.623 52.6722 44.7034C51.7548 46.1854 53.8684 47.5378 54.8998 46.1381C64.6438 33.0137 59.7165 13.875 46.1358 5.23126Z" fill="#12100E"/>
<path d="M45.6575 30.1777C44.7175 29.0843 43.0806 30.6258 44.1186 31.6211C44.6861 32.1486 45.0778 32.8332 45.2794 33.5865C46.0499 36.4815 44.1622 39.8587 41.2633 40.6638C39.9211 41.0413 38.4912 40.8438 37.0968 40.5924C31.1254 38.6975 24.7259 39.2038 19.2365 42.273C17.0472 43.1406 14.1865 41.6281 14.2752 39.1147C13.9934 37.705 12.1915 38.028 12.1189 39.4033C11.0583 44.3327 17.3343 47.6235 21.3731 45.362C24.7095 43.901 28.2567 42.4748 31.9505 42.5757C34.0537 42.6507 36.0347 43.2319 38.1888 43.3671C45.1134 44.6046 50.8047 35.3852 45.6575 30.1777Z" fill="#12100E"/>
<path d="M35.2405 23.4168C35.2513 23.054 35.2642 22.6922 35.3005 22.3367C36.0412 15.0507 40.7483 16.8695 40.1958 23.2621C40.1279 24.3611 41.0508 25.2963 42.1517 25.239C45.2697 24.9265 43.5569 20.0812 42.8115 18.2289C41.6405 15.2207 37.5468 13.3679 35.146 16.208C33.387 18.2479 33.2495 20.99 33.561 23.5004C33.7179 24.5198 35.1839 24.4506 35.2405 23.4168Z" fill="#12100E"/>
<path d="M23.3108 28.1798C24.0924 26.6136 24.1802 24.0396 21.8648 24.0656C18.7754 24.4229 21.3843 28.024 18.3195 28.4594C16.7717 28.5947 15.9121 27.3084 15.7573 25.8656C15.6563 24.8564 14.2243 24.8116 14.0744 25.8266C13.1703 31.509 21.2228 33.3061 23.3108 28.1798Z" fill="#12100E"/>
</svg>
