<svg width="100" height="42" viewBox="0 0 100 42" fill="none" xmlns="http://www.w3.org/2000/svg">
<path d="M28.7325 36.4712C29.9998 38.4428 33.1293 41.8319 39.6088 41.8382C48.5787 41.84 53.1042 36.0931 53.106 29.5029C53.1137 22.9204 48.838 17.512 40.1474 17.5083C33.5096 17.5024 26.9094 21.2935 26.9036 29.7207C26.9036 30.5303 26.9985 31.4411 27.1272 32.14C27.1984 32.5478 27.3986 33.298 27.6024 33.9653C26.094 35.9549 23.1939 38.8355 18.9354 38.8333C13.0738 38.8292 8.88671 34.6404 8.88854 24.6353C8.89661 14.6343 12.8163 9.40994 18.0902 9.41397C24.8348 9.41581 27.8419 17.1999 28.3387 18.3579L29.0435 8.87533C26.2403 9.39197 23.2728 7.27004 17.795 7.25977C7.51058 7.25354 0.00368183 15.0868 1.50995e-05 25.1949C-0.0117184 35.2575 6.81611 41.998 16.647 42.0002C23.4865 42.0024 27.1349 38.5143 28.7325 36.4712ZM34.7566 29.3999C34.7566 27.5925 34.7071 19.2819 39.8226 19.2819C44.2945 19.2837 44.5461 26.4107 44.542 29.6631C44.542 32.9119 44.1262 40.0367 39.5534 40.0367C34.8516 40.0327 34.7566 32.3435 34.7566 29.3999ZM54.5929 12.563C54.5929 13.4697 54.5771 41.1195 54.5771 41.1195L61.9909 41.1235L61.9968 32.3872L63.1133 30.9381C63.1133 30.9381 65.7563 35.531 67.3418 38.0251C68.9254 40.5137 70.8934 41.8044 74.2646 41.8085C77.3904 41.8085 79.8175 39.9553 79.8175 39.9553C79.8175 39.9553 82.3061 41.836 87.0134 41.84C95.2031 41.8422 97.3569 35.5508 97.6282 34.7152C97.6282 34.7152 94.4349 38.3797 89.1178 38.3735C83.7966 38.3716 83.4006 32.961 83.1234 31.6509C86.2929 31.245 97.5707 30.3899 97.5729 23.5995C97.5769 18.7333 92.7031 17.5992 88.5872 17.5974C80.5618 17.5934 75.0305 22.9167 75.0247 30.1761C75.0247 35.3825 77.2815 37.6434 77.9881 38.4156C76.6281 38.8512 75.769 38.6059 73.4744 35.3352C72.3025 33.6562 67.9611 26.5497 67.9611 26.5497L75.9311 17.3184H66.4269C66.7892 17.3184 68.8917 18.5991 68.8895 19.9514C68.8913 20.4149 68.7252 20.6562 68.3908 21.0482C68.056 21.4379 61.9946 28.5191 61.9946 28.5191L62.0045 8.8867L51.6151 8.88083C51.6155 8.88083 54.5929 9.31424 54.5929 12.563ZM87.1146 19.4561C89.7316 19.4601 90.3234 22.685 90.3175 24.8865C90.3175 29.4494 83.2957 29.6712 82.9708 29.6712C82.9789 22.2516 85.2457 19.4579 87.1146 19.4561Z" fill="#DEFF16"/>
<path d="M84.9886 12.3479C84.2285 13.126 83.4446 13.8308 82.5378 14.31C81.7953 14.6308 80.857 14.9634 80.1383 14.3811C79.7899 14.0603 79.7584 13.522 79.8831 13.0747C80.0217 12.6075 80.2652 12.1719 80.4969 11.7462C80.4969 11.7462 83.5891 6.07452 83.621 6.01512C83.6565 5.95389 83.7079 5.95756 83.7079 5.95756C84.2659 5.95756 85.9211 5.95352 85.9864 5.95352C86.0458 5.95352 86.0003 6.05839 86.0201 6.01879C86.0399 5.97919 84.945 8.03219 84.945 8.03219C84.945 8.03219 82.621 12.3358 82.5257 12.5162C82.2881 12.9617 82.5022 13.3024 83.1692 12.8807C83.9829 12.3659 84.4243 11.8353 84.9171 11.1882C85.5742 10.329 85.9347 9.17878 87.0691 7.97903C88.1717 6.80714 89.0587 6.25896 89.993 5.93189C91.0659 5.55568 92.2656 5.82299 92.5586 6.61097C92.812 7.29371 92.438 8.2401 91.9529 8.80037C90.8048 10.1131 89.2567 10.8336 87.6393 11.1959C87.3563 11.5897 86.9089 13.1913 88.3576 13.1579C89.1654 13.1381 89.8386 12.6908 90.5668 12.2134C91.826 11.3227 92.9858 10.2 93.8115 8.92541C94.2013 8.22836 94.6274 7.52582 94.9757 6.81887H93.5604C93.5604 6.81887 94.0609 5.95756 94.0631 5.95756H95.4608L97.0229 3.21777L99.3215 3.22181C99.3215 3.23171 98.0088 5.71042 97.8765 5.95756C98.209 5.95169 99.6405 5.95352 99.6405 5.95352L99.2108 6.81667L97.4053 6.81851L97.1736 7.19288C97.1736 7.19288 95.2614 10.7404 94.5841 11.9538C94.0275 12.9515 94.4473 13.1117 94.8573 12.9375C95.4117 12.704 96.1062 11.9556 96.3478 11.7143C96.7713 11.2292 97.1831 10.7404 97.5318 10.2315C97.8545 10.2256 98.2959 10.2256 98.4323 10.2315C97.3437 12.0271 95.6709 14.0801 93.5567 14.6422C92.9861 14.7353 92.2917 14.7452 91.8876 14.3096C91.4978 13.9037 91.5213 13.2309 91.7175 12.7436C91.7827 12.583 91.8579 12.4029 91.8898 12.3358C91.9254 12.2706 91.8876 12.2387 91.8187 12.3003C90.5199 13.5176 88.9205 14.6899 87.1645 14.7056C86.4498 14.7097 85.6303 14.3969 85.2739 13.698C84.9175 12.9973 85.0026 12.5298 84.9886 12.3479ZM89.2787 8.4381C88.8985 8.86381 88.483 9.43949 88.1523 10.1186C88.1523 10.1186 90.0766 9.62759 91.1279 8.29143C91.3636 7.99076 91.7633 7.44405 91.4982 7.11734C91.4109 7.01248 90.8525 6.6744 89.2787 8.4381Z" fill="#DEFF16"/>
<path d="M85.6068 2.57541C84.9137 2.96958 84.5951 3.71576 84.9119 4.27604C85.2265 4.83852 86.0878 4.92542 86.7372 4.54334C87.3767 4.16897 87.7386 3.41692 87.4222 2.85481C87.1076 2.29417 86.3016 2.18527 85.6068 2.57541Z" fill="#DEFF16"/>
<path d="M76.4313 2.52335C76.2707 2.76095 76.1145 3.05172 75.8216 3.6241C75.5308 4.19611 74.9445 5.85897 74.4634 7.01326C73.6299 9.01456 72.3847 10.8065 70.8663 12.0811C69.6072 13.144 68.9461 13.5976 67.9168 13.9617C67.9168 13.9617 68.3029 14.1022 69.1877 14.1399C72.5769 14.2862 75.4354 12.7719 77.0448 10.5051C78.5353 8.40479 79.6086 5.566 77.8922 2.99819C76.2748 0.588778 69.1936 -0.383272 65.3567 2.92485C63.2465 4.74612 63.9828 7.49177 66.9701 6.33565C67.5006 6.10208 67.9817 5.70204 68.1757 5.33976C69.8921 5.96934 71.9487 4.63318 71.9487 4.63318C71.9487 4.63318 70.4857 7.90538 66.9345 8.37875C63.2978 8.85983 62.2785 6.96706 62.3258 5.6309C62.6701 1.17069 71.442 -1.43269 76.6686 0.834083C80.9583 2.69715 81.8669 5.97338 80.992 8.58666C79.7032 12.4411 76.413 14.0901 73.293 14.7651C69.9236 15.4977 67.1758 14.8362 66.2712 14.6085C65.8891 14.5077 65.7069 14.3907 65.7069 14.3907C65.7069 14.3907 66.9026 13.5631 68.0488 12.1735C69.0128 11.0052 70.0167 9.57631 70.7351 8.35088C72.3767 5.5286 74.5584 3.28933 76.4313 2.52335Z" fill="#DEFF16"/>
</svg>
