<svg width="125" height="39" viewBox="0 0 125 39" fill="none" xmlns="http://www.w3.org/2000/svg">
<path d="M26.9458 10.1876C25.0362 10.1391 23.0296 10.9482 21.4113 12.3723C19.7768 13.7802 18.5469 15.884 18.5469 18.3762V30.6428H20.9743V18.3762C20.9743 16.677 21.7996 15.2529 22.9972 14.201C24.1947 13.1491 25.7645 12.5827 26.8811 12.6151L26.9458 10.1876Z" fill="#DEFF16"/>
<path d="M0 6.22363V8.71581H5.38244C6.85024 8.71581 7.77104 9.24984 8.41674 10.0266C9.06244 10.8034 9.40714 11.92 9.39257 13.0367C9.37639 14.1695 9.00257 15.3184 8.34068 16.0952C7.6788 16.8882 6.76447 17.406 5.38244 17.406H0V19.9144H5.38244H6.54114C8.28728 19.9144 9.38286 20.4646 10.1111 21.209C10.8393 21.9858 11.218 23.0053 11.2536 24.0734C11.2908 25.1415 10.9736 26.2096 10.4153 26.954C9.85541 27.6984 9.11908 28.1353 8.04292 28.1353H0V30.6437H8.04292C9.85055 30.6437 11.3766 29.7374 12.3314 28.4752C13.2862 27.2129 13.7393 25.6108 13.6811 23.9925C13.626 22.3742 13.0434 20.7236 11.8362 19.4613C11.2876 18.8949 10.5982 18.4256 9.81333 18.0857C9.93309 17.9563 10.0739 17.8592 10.1823 17.7297C11.2698 16.4351 11.799 14.7359 11.82 13.0852C11.8427 11.4184 11.3491 9.71915 10.2632 8.40833C9.17734 7.08133 7.46842 6.22363 5.38244 6.22363H0Z" fill="#DEFF16"/>
<path d="M43.3526 9.92969C38.0932 9.92969 33.0117 13.846 33.0117 19.8822C33.0117 22.1316 33.7561 24.6076 35.3906 26.5981C37.0089 28.5886 39.5982 30.0451 42.948 30.0451H43.5306V27.6176H42.948C40.2617 27.6176 38.4816 26.5657 37.2678 25.0607C36.0379 23.5719 35.4392 21.5652 35.4392 19.8822C35.4392 15.173 39.2583 12.3571 43.3526 12.3571C47.4793 12.3571 50.9262 15.6261 50.9262 19.2349V30.6438H53.3537V19.2349C53.3537 14.1373 48.7415 9.92969 43.3526 9.92969Z" fill="#DEFF16"/>
<path d="M91.9034 30.6424C86.6439 30.6424 81.5625 26.7261 81.5625 20.6899C81.5625 18.4405 82.3069 15.9645 83.9414 13.974C85.5597 11.9835 88.149 10.527 91.4988 10.527H92.0814V12.9545H91.4988C88.8125 12.9545 87.0323 14.0064 85.8186 15.5114C84.5887 17.0002 83.9899 19.0069 83.9899 20.6899C83.9899 25.3991 87.8091 28.215 91.9034 28.215C96.03 28.215 99.477 24.946 99.477 21.3372V3.22852H101.904V21.3372C101.904 26.4348 97.2923 30.6424 91.9034 30.6424Z" fill="#DEFF16"/>
<path d="M67.7405 9.92969C63.3226 9.92969 59.0503 13.846 59.0665 19.8822L59.0826 30.6438H61.0731L61.1055 19.8822C61.1217 15.173 64.2935 12.3571 67.7405 12.3571C71.2037 12.3571 74.0842 15.6261 74.0842 19.2349V30.6438H76.1233V19.2349C76.1233 14.1373 72.2555 9.92969 67.7405 9.92969Z" fill="#DEFF16"/>
<path d="M107.727 9.92969L107.711 20.6913C107.695 26.7276 111.967 30.6438 116.385 30.6438C118.181 30.6438 120.576 29.5272 121.968 28.3944C121.968 31.4044 120.431 35.5796 116.126 35.5796V38.9781C118.699 38.9781 124.768 35.4178 124.768 29.333V22.957H122.535C121.839 25.8699 119.314 28.2164 116.385 28.2164C112.938 28.2164 109.766 25.4006 109.75 20.6913L109.718 9.92969H107.727Z" fill="#DEFF16"/>
<path d="M110.441 4.23402L111.279 6.83567L109.054 5.24376L106.844 6.85607L107.658 4.24683L105.449 2.63866L108.184 2.60989L109.03 0.0166771L109.9 2.602L112.635 2.6056L110.441 4.23402Z" fill="#DEFF16"/>
</svg>
