<svg width="208" height="22" viewBox="0 0 208 22" fill="none" xmlns="http://www.w3.org/2000/svg">
<path d="M0 20.5601L4.25931 0.286537H11.0035L9.56393 7.1312H15.9362L17.3758 0.286537H24.12L19.8607 20.5601H13.1165L14.7681 12.7037H8.39587L6.74422 20.5601H0ZM105.657 0.286537L104.221 7.1312H97.8489L99.2848 0.286537H74.2534L73.1337 5.60603H79.1935L76.0539 20.5601H82.7981L85.9377 5.60603H91.4246L88.2813 20.5601H95.0292L96.6771 12.7037H103.049L101.401 20.5601H108.142L112.401 0.286537H105.657ZM65.6716 15.8321L68.9339 0.290256H62.1934L58.0866 19.831L55.0847 0.290256H48.9617L39.4833 15.8321H28.8815L29.5511 12.6516H39.2936L40.2868 7.92354H30.5443L30.9944 5.65067H42.2807L43.4301 0.293975H25.4034L21.1441 20.5676H42.8052L44.4903 17.8743H51.8781L52.4286 20.5676H73.941L74.9342 15.8396H65.6716V15.8321ZM47.0533 13.6634L50.0739 8.67125L51.0932 13.6634H47.0533ZM129.13 6.61041V6.39837C129.13 2.29158 126.251 0.119141 120.831 0.119141C115.66 0.119141 112.256 2.77516 112.256 6.75548C112.256 7.54411 112.412 8.26577 112.751 8.9614C113.432 10.468 114.823 11.4352 117.457 12.2163L119.93 12.9715C121.511 13.4551 122.036 13.9052 122.036 14.7533C122.036 15.78 120.983 16.4719 119.343 16.4719C117.297 16.4719 116.214 15.568 116.214 13.8457H110.021V14.2102C110.021 18.5253 113.179 20.9693 118.751 20.9693C124.48 20.9693 128.103 18.3133 128.103 14.0279C128.103 12.4581 127.575 11.1301 126.522 10.1332C126.035 9.6885 125.481 9.32208 124.882 9.04696C123.952 8.62661 123.397 8.4741 120.671 7.71895C118.751 7.2056 118.256 6.90428 118.256 6.11938C118.256 5.21544 119.216 4.58305 120.641 4.58305C122.278 4.58305 123.025 5.1522 123.237 6.60297H129.13" fill="#DEFF16"/>
<path d="M140.543 4.92146C142.462 5.10374 143.452 6.42803 143.452 8.75299C143.452 10.1405 143.05 11.8628 142.399 13.2801C141.503 15.2405 140.234 16.2077 138.623 16.2077C136.395 16.2077 135.156 14.8202 135.156 12.3427C135.156 8.08712 137.292 4.91774 140.201 4.91774L140.543 4.92146ZM141.473 0.0297608C141.164 0.0297608 140.822 0 140.513 0C133.642 0 128.844 4.98098 128.844 12.0749C128.844 17.8408 132.251 21.0994 138.192 21.0994C141.938 21.0994 144.694 19.9834 146.677 17.599C148.66 15.2443 149.865 11.8628 149.865 8.66371C149.861 3.58973 146.737 0.394313 141.473 0.0297608ZM171.37 0.513352H165.113L163.067 9.77969C162.572 12.0154 162.048 13.8232 161.676 14.5189C161.118 15.5158 160.158 15.9957 158.89 15.9957C157.186 15.9957 156.226 15.181 156.226 13.7042C156.226 13.3099 156.319 12.7073 156.442 12.1344L158.983 0.513352H152.666L150.189 11.8926C149.787 13.853 149.757 14.0055 149.757 14.9727C149.757 18.8377 152.915 20.9171 158.733 20.9171C161.706 20.9171 164.243 20.1025 165.917 18.5624C166.538 17.9896 167.062 17.2939 167.494 16.4793C168.115 15.3596 168.454 14.2436 168.952 11.8926L171.37 0.513352ZM201.635 0.513352L200.088 7.45845H194.114L195.661 0.513352H172.385L171.303 5.61337H177.154L173.84 20.6158H180.156L183.471 5.61337H188.236L184.977 20.6158H191.264L193.057 12.6775H198.972L197.238 20.6158H203.555L207.922 0.513352H201.635Z" fill="#DEFF16"/>
</svg>
