<svg width="126" height="135" viewBox="0 0 126 135" fill="none" xmlns="http://www.w3.org/2000/svg">
<path d="M121.146 16.2686C117.888 15.8083 114.304 16.0046 110.999 15.5448C113.151 13.3584 115.355 11.2238 117.642 9.1755C119.026 7.99244 118.985 5.76097 117.551 4.63433C116.276 3.61137 114.413 3.81554 113.391 5.09071C111.692 7.03508 109.978 8.97159 108.256 10.9026C107.923 5.65914 107.128 -1.7856 102.338 2.61858C99.6805 6.63015 99.1803 13.6036 102.115 17.696C100.189 19.7978 98.2486 21.8889 96.2906 23.9645C96.1618 21.6291 96.1604 19.2737 96.2617 16.9475C96.3229 15.5786 96.4373 14.2098 96.6606 12.8417C97.0215 9.89142 92.8514 9.18731 92.2205 12.0859C91.2065 17.8196 90.7929 23.6351 90.3643 29.4339C90.3735 29.6635 90.3995 29.8761 90.4326 30.0808C79.9643 40.8358 69.0255 51.1351 57.4808 60.6302C57.0651 60.9583 56.7378 61.3556 56.4909 61.7899C56.2494 61.0173 56.0935 60.1867 56.0466 59.29C55.1816 55.1579 60.0671 48.8766 53.9156 47.1681C47.2608 46.4273 48.4092 56.1743 49.0503 60.4581C52.4942 79.8137 82.1659 73.3719 71.9918 69.046C68.4797 69.6454 64.5828 69.1782 61.5186 67.5656C61.9886 67.3774 62.4319 67.0998 62.8195 66.7274C73.4798 56.5809 84.3459 44.7564 94.6504 33.3447C97.2682 33.6163 100.491 33.0011 102.52 33.0444C105.581 32.7765 115.673 31.3137 110.725 26.6927C108.086 25.3189 105.138 24.8276 102.199 24.9649C102.722 24.3844 103.244 23.8054 103.763 23.2302C104.565 22.3484 105.373 21.4713 106.184 20.5972C106.411 20.6633 106.646 20.721 106.888 20.7693C111.534 21.3876 116.122 20.2972 120.727 20.7402C123.59 21.0244 124.03 16.5216 121.146 16.2686Z" fill="black"/>
<path d="M122.932 49.8838C121.926 48.0192 119.096 48.3693 118.588 50.4436C117.315 57.1377 117.974 63.9883 118.041 70.751C117.913 78.4183 114.358 85.942 109.373 91.6696C106.933 107.349 135.106 71.633 122.932 49.8838Z" fill="black"/>
<path d="M92.6665 107.593C74.7564 116.922 52.7169 117.408 35.0532 107.725C34.79 107.476 34.4777 107.269 34.1103 107.132C34.0276 107.103 33.9486 107.081 33.8688 107.057C31.588 105.733 29.3841 104.236 27.278 102.561C-11.0248 77.0408 6.14815 14.4806 49.2407 5.73209C54.6326 4.56111 60.2994 4.36822 65.7882 4.92852C68.5354 5.21431 71.2859 5.78432 73.9722 6.43778C75.182 6.72094 76.4029 5.98429 76.7097 4.77499C78.2286 0.139353 62.0204 0.185016 59.0156 0C55.1271 0.0123344 51.1255 0.487865 47.3241 1.31453C3.28499 10.6779 -16.654 71.7805 16.6665 103.515C20.0763 106.998 23.8819 110.057 27.9711 112.653C27.6541 113.135 27.3111 113.563 26.9209 113.894C23.076 118.527 19.1436 123.082 14.8688 127.334C10.6321 131.846 18.1818 137.558 21.3523 132.197C24.237 126.903 27.5093 121.853 30.8802 116.864C31.2964 116.265 31.7253 115.677 32.1769 115.109C49.3238 124.282 70.4503 125.795 88.314 117.229C88.314 117.229 88.0321 117.339 88.0321 117.338C89.7154 116.739 91.0257 115.757 92.3938 114.864C97.4207 119.431 100.499 125.852 104.603 131.27C106.43 133.549 109.761 131.246 108.427 128.771C104.795 122.957 99.9034 109.161 92.6665 107.593Z" fill="black"/>
<path d="M36.9436 82.708C15.1164 61.6282 39.4469 24.0211 67.0516 26.6556C69.9176 26.8834 70.6141 22.8435 67.7778 22.1423C42.8971 16.2543 18.1155 40.7463 20.7519 65.5059C24.6997 97.1198 68.3026 112.322 90.2862 89.468C99.0568 80.3434 104.503 67.2621 101.51 54.596C100.745 51.6767 96.55 52.5802 97.0381 55.5428C97.251 56.5837 97.5145 57.8475 97.6105 58.8986C99.3358 92.0265 58.3821 107.697 36.9436 82.708Z" fill="#DEFF16"/>
</svg>
